<?xml version="1.0" encoding="utf-8"?>
<svg version="1.1" xmlns="http://www.w3.org/2000/svg" xmlns:xlink="http://www.w3.org/1999/xlink" x="0px" y="0px" viewBox="0 0 200 65" style="enable-background:new 0 0 200 65;" xml:space="preserve">
<path fill="#F8BDD7" d="M43.1,29.8c10.1-2,14.8-8.3,14.8-14.4c0-7.2-6.6-14.1-19.3-14.1H0l9.7,8.2v46.2L0,63.9h39.4c15.5,0,23.2-8.9,23.2-17.7C62.7,38.3,56.2,30.7,43.1,29.8z M26.4,6.6H31c5.6,0,9.1,3.9,9.1,9.9c0,6.4-4.1,11.3-13.7,11.3V6.6z M44.7,46.1c0,7.1-4.6,12.3-13.3,12.3h-5V34.1h4.7C40.2,34.1,44.7,39.1,44.7,46.1L44.7,46.1z"/>
<path fill="#F8BDD7" d="M92.8,44.3l14-5.7v15.5c-1.3,0.2-2.5,0.3-3.8,0.3c-12.1,0-22.8-8.9-22.8-26.6c0-11,5.5-20.1,17.3-23.6l11.6,15.3l13.3-11.3C116,2.7,107.6,0,99.2,0C82.4,0,65.8,10.7,65.8,32.5c0,21,15.2,32.4,30.5,32.4c7.2,0,14.2-2.4,19.8-7.4l7.4,6.3l0-32.6H95.5L92.8,44.3z"/>
<polygon fill="#F8BDD7" points="174.2,1.3 183.8,9.5 183.8,44.2 149.8,1.3 128.3,1.3 136.8,11.9 136.8,55.7 127.1,63.9 153,63.9 143.3,55.7 143.3,20.2 178.1,63.9 190.3,63.9 190.3,9.5 200,1.3 "/>
</svg>
